<svg t="1695279332358" class="icon" viewBox="0 0 1024 1024" version="1.1" xmlns="http://www.w3.org/2000/svg" p-id="7891"
    width="200" height="200">
    <path
        d="M957.73 310.28C945.49 240.69 881.53 192 810.88 192H405.12c-70.65 0-134.6 48.69-146.85 118.28C247.72 370.2 274.95 425.2 320 455.52V800c0 17.67 14.33 32 32 32h512c17.67 0 32-14.33 32-32V455.52c45.05-30.32 72.28-85.32 61.73-145.24z"
        fill="#E6B05D" p-id="7892"></path>
    <path
        d="M765.73 310.28C753.49 240.69 689.53 192 618.88 192H213.12c-70.65 0-134.6 48.69-146.85 118.28C55.72 370.2 82.95 425.2 128 455.52V800c0 17.67 14.33 32 32 32h512c17.67 0 32-14.33 32-32V455.52c45.05-30.32 72.28-85.32 61.73-145.24z"
        fill="#F6D499" p-id="7893"></path>
    <path d="M496 656m-48 0a48 48 0 1 0 96 0 48 48 0 1 0-96 0Z" fill="#E6B05D" p-id="7894"></path>
    <path d="M544 352m-32 0a32 32 0 1 0 64 0 32 32 0 1 0-64 0Z" fill="#E6B05D" p-id="7895"></path>
    <path d="M288 512m-32 0a32 32 0 1 0 64 0 32 32 0 1 0-64 0Z" fill="#E6B05D" p-id="7896"></path>
</svg>